# xmcd
#
# Track frame offsets:
#	150
#	13402
#	25967
#	38905
#	53647
#	67955
#	82160
#	95017
#	109787
#	123580
#	137177
#	149872
#	163717
#	176417
#	189247
#	201822
#	216767
#	230422
#	243360
#	255797
#	267670
#	283000
#	297325
#	310937
#
# Disc length: 4307 seconds
#
# Revision: 0
# Processed by: cddbd v1.5.2PL0 Copyright (c) Steve Scherf et al.
# Submitted via: dBpowerAMP V4.0
#
DISCID=6f10d118
DTITLE=Bumble Bee Slim -  Bumble Bee Slim Vol 5 1935 - 1936
DYEAR=1900
DGENRE=blues
TTITLE0=How Long How Long Blues
TTITLE1=You Don't  Mean Me No Good
TTITLE2=New B and O Blues
TTITLE3=Prison Bound Blues
TTITLE4=My Old Pat Blues
TTITLE5=Last Respects
TTITLE6=Sloppy Drunk Blues
TTITLE7=D.B.A. Blues
TTITLE8=I'll Take You Back
TTITLE9=Sick And Tired Of Singing The Blues
TTITLE10=New When The Sun Goes Down
TTITLE11=Happy Life Blues
TTITLE12=When Somebody Loses
TTITLE13=Ramblin' With That Woman
TTITLE14=This Old Life I¨m Living
TTITLE15=Dumb Trick Blues [take 1]
TTITLE16=Dumb Trick Blues [take 2]
TTITLE17=New Orleans Stop Time
TTITLE18=You Got To Live And Let Live
TTITLE19=Hard Rocks In My Heart
TTITLE20=Who's Been Here Today?
TTITLE21=I Done Caught My Death Of Cold
TTITLE22=No More Bisquit Rolling Here [take 1]
TTITLE23=No More Bisquit Rolling Here [take 2]
EXTD=
EXTT0=
EXTT1=
EXTT2=
EXTT3=
EXTT4=
EXTT5=
EXTT6=
EXTT7=
EXTT8=
EXTT9=
EXTT10=
EXTT11=
EXTT12=
EXTT13=
EXTT14=
EXTT15=
EXTT16=
EXTT17=
EXTT18=
EXTT19=
EXTT20=
EXTT21=
EXTT22=
EXTT23=
PLAYORDER=
